 http://s5.postimage.org/4mhy4telz/1347502641_3316434250.jpg


Format                                   : AVI
Format/Info                              : Audio Video Interleave
File size                                : 816 MiB
Duration                                 : 2h 5mn
Overall bit rate                         : 909 Kbps

Video
ID                                       : 0
Format                                   : mp43
Codec ID                                 : mp43
Duration                                 : 2h 5mn
Bit rate                                 : 768 Kbps
Width                                    : 608 pixels
Height                                   : 260 pixels
Display aspect ratio                     : 2.35:1
Frame rate                               : 23.976 fps
Bits/(Pixel*Frame)                       : 0.203
Stream size                              : 689 MiB (84%)

Audio
ID                                       : 1
Format                                   : MPEG Audio
Format version                           : Version 1
Format profile                           : Layer 3
Mode                                     : Joint stereo
Mode extension                           : MS Stereo
Codec ID                                 : 55
Codec ID/Hint                            : MP3
Duration                                 : 2h 5mn
Bit rate mode                            : Constant
Bit rate                                 : 128 Kbps
Channel(s)                               : 2 channels
Sampling rate                            : 32.0 KHz
Compression mode                         : Lossy
Stream size                              : 115 MiB (14%)
Alignment                                : Aligned on interleaves
Interleave, duration                     : 36 ms (0.86 video frame)
Writing library                          : LAME3.98.2

 
http://s5.postimage.org/4dfs15cfr/vlcsnap_2012_11_12_02h20m11s117.png 
http://s5.postimage.org/4rh40qwjb/vlcsnap_2012_11_12_02h21m26s94.png 
http://s5.postimage.org/dcafrx6pj/vlcsnap_2012_11_12_02h23m17s148.png 
http://s5.postimage.org/4722y23av/vlcsnap_2012_11_12_02h24m25s237.png 
http://s5.postimage.org/yprvj0shj/vlcsnap_2012_11_12_02h25m46s98.png


*** All Credits Goes To : Lottery & Team ICFG ***